<?xml version="1.0" standalone="no"?>
<!DOCTYPE svg PUBLIC "-//W3C//DTD SVG 20010904//EN"
 "http://www.w3.org/TR/2001/REC-SVG-20010904/DTD/svg10.dtd">
<svg version="1.0" xmlns="http://www.w3.org/2000/svg"
 width="428.000000pt" height="428.000000pt" viewBox="0 0 428.000000 428.000000"
 preserveAspectRatio="xMidYMid meet">
<metadata>
Created by potrace 1.11, written by Peter Selinger 2001-2013
</metadata>
<g transform="translate(0.000000,428.000000) scale(0.100000,-0.100000)"
fill="#000000" stroke="none">
<path d="M0 2140 l0 -2140 2140 0 2140 0 0 2140 0 2140 -2140 0 -2140 0 0
-2140z m1710 1275 c47 -3 157 -7 245 -10 88 -3 241 -8 340 -11 674 -22 839
-32 897 -52 132 -47 239 -156 273 -277 9 -32 18 -155 25 -340 6 -159 13 -324
15 -365 16 -260 26 -564 20 -615 -9 -81 -19 -99 -48 -84 -12 7 -25 18 -30 25
-4 7 -15 10 -24 7 -12 -5 -14 -3 -8 7 5 9 4 11 -3 6 -7 -4 -27 5 -46 20 -33
26 -33 28 -30 98 1 39 -1 136 -6 216 -14 230 -19 319 -30 570 -17 392 -17 399
-46 447 -38 65 -125 113 -205 113 -21 0 -50 5 -66 11 -15 6 -46 12 -68 14 -46
4 -32 -3 57 -29 65 -19 160 -85 202 -140 60 -79 66 -113 101 -551 2 -33 14
-185 26 -338 20 -259 21 -282 6 -335 -9 -31 -13 -58 -9 -60 4 -2 115 -58 247
-125 234 -119 271 -145 280 -193 2 -10 4 -41 6 -69 1 -27 4 -40 6 -27 2 12 10
22 16 22 19 0 248 -127 271 -150 18 -18 21 -32 20 -104 -3 -177 -102 -282
-296 -317 -76 -14 -445 -5 -1533 36 -82 3 -404 14 -715 25 -1253 43 -1199 40
-1314 83 -78 29 -156 100 -186 169 -27 62 -31 176 -9 223 15 33 16 33 364 201
121 58 225 110 231 115 7 6 1 28 -20 71 -30 59 -31 68 -31 183 1 72 16 247 38
440 21 176 45 379 53 450 37 324 44 369 66 414 30 62 119 154 181 187 101 53
112 54 392 48 143 -2 298 -7 345 -9z"/>
<path d="M1085 3212 c-45 -21 -90 -64 -110 -102 -18 -37 -37 -178 -101 -780
-7 -74 -18 -165 -24 -201 -14 -94 -24 -291 -16 -322 3 -14 18 -39 32 -56 26
-31 25 -51 -2 -51 -8 0 -14 -4 -14 -9 0 -5 -10 -13 -22 -16 -13 -4 -44 -20
-70 -35 -25 -16 -49 -26 -52 -23 -3 4 -6 1 -6 -5 0 -7 -6 -12 -14 -12 -8 0
-24 -9 -37 -21 -13 -11 44 14 126 56 83 43 151 78 152 79 1 1 -7 32 -19 70
l-21 68 22 282 c60 777 59 764 93 834 54 109 162 187 293 211 39 7 318 11 817
11 451 0 758 4 758 9 0 6 -122 8 -297 6 -164 -1 -426 1 -583 6 -157 5 -415 11
-575 14 -272 6 -292 5 -330 -13z"/>
<path d="M1344 3115 c3 -10 2 -13 -5 -10 -5 4 -18 1 -27 -7 -15 -12 -16 -11
-3 5 12 15 11 17 -8 17 -60 0 -213 -92 -197 -119 5 -8 104 -69 130 -80 5 -2 6
3 3 12 -4 11 -2 14 8 11 7 -3 27 2 44 10 23 12 61 16 158 16 l128 0 -30 19
c-16 10 -61 35 -98 55 -38 21 -66 40 -63 43 3 3 55 -22 116 -56 l110 -62 225
2 c161 1 223 5 218 13 -4 7 -1 6 8 -1 11 -9 86 -12 267 -12 139 -1 252 1 252
3 0 2 -34 23 -75 45 -41 23 -75 44 -75 47 0 5 149 -74 165 -88 5 -4 47 -8 95
-8 l85 0 29 36 c19 24 32 32 38 26 7 -7 23 5 48 36 46 58 43 59 -99 61 -96 1
-103 0 -85 -14 17 -14 16 -14 -13 0 -25 12 -69 15 -200 15 l-168 0 40 -25 c22
-13 37 -25 32 -25 -4 0 -25 11 -46 25 l-39 24 -273 0 c-180 -1 -267 -4 -256
-10 9 -6 21 -8 26 -5 5 3 11 0 14 -8 3 -8 24 -22 46 -32 23 -10 41 -21 41 -26
0 -12 -6 -10 -41 11 -17 11 -39 17 -47 13 -10 -3 -13 -1 -8 6 4 7 -9 19 -34
31 -36 17 -64 20 -241 21 -180 1 -201 -1 -195 -15z m710 -10 c11 -8 29 -12 40
-9 12 3 30 -2 41 -11 19 -16 17 -16 -30 0 -19 6 -19 6 -3 -8 10 -8 15 -16 12
-19 -3 -4 0 -9 7 -14 8 -4 10 -3 5 4 -10 17 5 14 29 -4 20 -16 20 -16 -2 -9
-14 4 -23 2 -23 -4 0 -6 5 -11 10 -11 6 0 10 -5 10 -11 0 -5 -4 -7 -10 -4 -5
3 -10 1 -10 -5 0 -8 -9 -10 -27 -5 -36 9 -38 11 -22 31 12 14 14 14 27 -3 8
-10 12 -12 8 -3 -3 8 -8 22 -12 30 -3 8 -24 28 -47 42 -23 15 -37 28 -32 28 6
-1 19 -7 29 -15z m-799 -14 c-19 -8 -19 -8 1 -19 14 -7 24 -8 31 -1 7 7 25 2
57 -16 25 -14 52 -23 58 -19 7 4 8 3 4 -4 -4 -6 5 -18 21 -26 15 -8 24 -15 20
-16 -11 0 -87 39 -120 62 l-28 20 -20 -23 c-12 -13 -32 -37 -45 -54 -13 -16
-24 -27 -24 -24 0 3 14 23 30 44 l30 38 -26 17 c-26 18 -20 28 16 29 9 0 7 -3
-5 -8z m1515 -17 c0 -2 -9 0 -20 6 -11 6 -20 13 -20 16 0 2 9 0 20 -6 11 -6
20 -13 20 -16z m-810 -7 c0 -2 -10 -12 -22 -23 l-23 -19 19 23 c18 21 26 27
26 19z m128 -11 c-2 -1 -12 -8 -23 -16 -11 -8 -17 -10 -13 -6 4 5 3 15 -2 21
-8 9 -4 11 15 7 14 -2 25 -5 23 -6z m112 -12 c0 -2 -9 0 -20 6 -11 6 -20 13
-20 16 0 2 9 0 20 -6 11 -6 20 -13 20 -16z m-202 -42 c12 -8 21 -17 18 -19 -6
-6 -63 24 -71 37 -7 12 21 2 53 -18z m222 2 c0 -2 -9 0 -20 6 -11 6 -20 13
-20 16 0 2 9 0 20 -6 11 -6 20 -13 20 -16z m35 -22 c-3 -3 -11 0 -18 7 -9 10
-8 11 6 5 10 -3 15 -9 12 -12z m-1056 -18 c14 -12 -19 -1 -35 12 -18 14 -18
14 6 3 14 -6 27 -13 29 -15z"/>
<path d="M2913 3078 c-17 -18 -33 -38 -35 -45 -3 -10 63 -63 79 -63 3 0 52
-29 108 -65 101 -64 125 -75 125 -54 0 5 -4 8 -9 5 -5 -4 -7 2 -4 12 12 46
-61 153 -136 201 -72 46 -91 47 -128 9z"/>
<path d="M2811 3004 c-28 -36 -17 -45 15 -12 16 15 22 28 16 32 -6 3 -20 -6
-31 -20z"/>
<path d="M2839 2994 l-22 -24 34 0 c42 0 108 -30 139 -61 13 -13 19 -18 15
-10 -5 10 -4 12 4 7 6 -4 9 -11 6 -16 -3 -5 -1 -20 5 -35 5 -14 11 -46 12 -71
1 -43 3 -46 55 -75 68 -39 69 -47 2 -13 l-52 26 8 -94 c4 -51 8 -111 10 -133
1 -22 8 -115 15 -207 l13 -166 80 -42 c44 -22 81 -40 83 -38 1 2 -2 53 -7 113
-9 114 -10 115 -65 153 -11 7 -5 5 13 -3 18 -8 35 -15 38 -15 6 0 1 74 -17
245 -6 55 -10 109 -9 120 1 11 -1 43 -4 72 -6 51 -8 53 -65 88 -33 20 -62 41
-66 47 -7 11 21 -3 79 -39 22 -14 41 -22 44 -19 5 5 -68 54 -229 154 l-97 60
-22 -24z m336 -342 c-3 -3 -11 0 -18 7 -9 10 -8 11 6 5 10 -3 15 -9 12 -12z"/>
<path d="M1067 2967 c-27 -41 -46 -111 -35 -124 6 -7 14 -13 19 -13 4 0 34
-16 66 -35 l58 -35 6 55 c4 31 14 64 23 74 9 9 16 20 16 23 0 13 -34 17 -49 6
-13 -10 -14 -10 -4 2 10 10 3 19 -33 42 -24 15 -46 28 -48 28 -2 0 -11 -10
-19 -23z"/>
<path d="M1292 2888 c-20 -13 -31 -26 -28 -35 3 -8 1 -11 -4 -8 -5 3 -12 -4
-15 -17 -8 -38 -37 -426 -33 -445 2 -10 10 56 17 147 19 247 23 263 86 327 45
45 50 53 32 53 -12 0 -37 -10 -55 -22z"/>
<path d="M2005 2904 c-5 -2 -127 -5 -270 -6 -251 -3 -262 -4 -305 -26 -61 -32
-89 -59 -111 -107 -28 -61 -25 -78 21 -104 22 -12 40 -24 40 -27 0 -2 -18 5
-40 16 -22 11 -40 19 -40 18 -1 -2 -3 -28 -6 -58 -6 -56 -6 -56 30 -75 20 -11
36 -23 36 -28 0 -5 -14 1 -31 13 -33 24 -34 24 -43 -7 -6 -18 0 -27 33 -48 22
-14 42 -25 44 -25 5 0 229 -128 315 -178 29 -18 55 -32 58 -32 8 0 259 -138
409 -225 154 -89 203 -114 209 -108 3 3 11 1 18 -4 7 -6 30 -16 51 -23 21 -6
58 -23 82 -37 42 -23 54 -25 171 -24 105 1 132 5 170 22 25 12 43 26 41 32 -5
16 -171 107 -185 102 -7 -3 -11 -1 -7 4 6 11 -54 43 -66 35 -5 -3 -8 0 -7 8 2
7 -4 13 -12 13 -8 0 -24 9 -37 21 -43 40 -72 29 -138 -57 -33 -43 -64 -78 -68
-79 -9 0 19 41 50 75 10 11 31 35 46 54 27 33 28 36 11 48 -10 7 -19 20 -20
29 -2 14 0 14 19 1 12 -9 21 -21 19 -27 -1 -7 5 -9 16 -6 11 4 45 -11 91 -39
40 -25 75 -45 77 -45 2 0 52 -27 110 -60 58 -33 112 -60 120 -60 19 0 55 74
57 118 1 21 -2 92 -7 159 l-8 122 -104 61 c-57 34 -104 63 -104 66 0 6 100
-49 153 -84 20 -14 40 -22 43 -19 3 3 1 65 -5 138 -6 72 -11 139 -11 148 0 9
-18 25 -41 35 -22 11 -43 24 -46 30 -4 6 10 0 31 -12 20 -12 41 -22 45 -22 13
0 0 102 -19 146 -15 34 -31 49 -86 81 -38 22 -78 43 -88 47 -16 5 -522 8 -646
3 -20 0 -40 2 -45 5 -6 3 -14 4 -20 2z m-199 -50 c35 -19 69 -32 75 -28 8 4 9
3 5 -4 -4 -7 9 -19 34 -32 22 -11 40 -25 40 -31 0 -6 4 -8 10 -4 5 3 26 -5 47
-17 21 -13 55 -32 76 -42 46 -24 67 -46 43 -46 -10 0 -14 5 -11 10 3 6 -1 10
-10 10 -9 0 -14 -4 -11 -8 3 -5 -1 -9 -9 -9 -11 0 -12 4 -4 13 8 10 -1 19 -40
38 -55 29 -76 33 -65 14 4 -7 4 -10 -1 -6 -4 4 -14 3 -22 -4 -11 -9 -18 -7
-31 7 -9 10 -12 15 -7 12 6 -2 16 1 23 9 10 11 3 18 -35 40 -27 15 -58 33 -71
41 -13 8 -30 12 -38 9 -7 -3 -13 -1 -11 5 1 6 -7 16 -18 22 -24 15 -48 37 -40
37 4 0 36 -16 71 -36z m683 -1 c2 -2 0 -3 -6 -3 -6 0 -21 9 -34 21 l-24 20 30
-17 c17 -10 32 -19 34 -21z m-430 -4 c-19 -12 -24 -2 -8 17 9 11 14 13 17 4 3
-7 -2 -16 -9 -21z m-67 3 c18 -10 85 -47 148 -82 97 -53 264 -149 321 -185 9
-5 38 -22 65 -37 27 -14 60 -36 74 -47 13 -12 48 -35 77 -52 29 -17 53 -33 53
-35 0 -6 -30 10 -105 56 -212 130 -458 271 -474 273 -11 0 -17 5 -14 11 4 5
-1 7 -10 3 -9 -3 -16 -3 -16 1 3 19 -2 23 -17 12 -12 -11 -15 -11 -12 1 2 8
-3 13 -10 11 -8 -1 -11 2 -7 7 3 6 -4 15 -15 21 -17 9 -24 6 -45 -17 -13 -15
-25 -22 -25 -15 0 6 4 12 10 12 5 0 14 9 20 19 8 17 5 22 -22 35 -25 13 -34
14 -47 3 -14 -11 -14 -10 -2 6 16 21 13 21 53 -1z m153 8 c3 -6 -1 -7 -9 -4
-18 7 -21 14 -7 14 6 0 13 -4 16 -10z m-15 -20 c14 -11 19 -20 12 -20 -7 0
-10 -5 -7 -10 4 -6 11 -7 17 -4 7 4 8 2 4 -5 -6 -8 -12 -9 -20 -2 -7 6 -17 7
-21 3 -5 -4 -4 -1 0 7 6 10 4 13 -7 9 -8 -4 -21 -2 -29 3 -10 6 -10 9 -1 9 6
0 11 3 11 8 -5 27 8 28 41 2z m-643 -32 c40 -23 71 -43 69 -45 -4 -4 -135 65
-150 78 -23 21 13 6 81 -33z m778 -18 c57 -32 130 -80 123 -80 -11 0 -202 112
-218 128 -8 8 3 5 25 -8 22 -12 54 -30 70 -40z m285 30 c8 -5 11 -10 5 -10 -5
0 -21 10 -35 21 -24 20 -5 13 30 -11z m-795 0 c3 -5 1 -10 -4 -10 -6 0 -11 5
-11 10 0 6 2 10 4 10 3 0 8 -4 11 -10z m855 -36 c0 -2 -9 0 -20 6 -11 6 -20
13 -20 16 0 2 9 0 20 -6 11 -6 20 -13 20 -16z m-728 -36 c13 -13 17 -17 8 -10
-9 6 -22 12 -28 12 -6 0 -14 5 -17 10 -11 19 14 10 37 -12z m833 -23 c19 -15
18 -15 -10 -1 -16 8 -39 22 -50 31 -19 15 -18 15 10 1 17 -8 39 -22 50 -31z
m-587 -10 c-3 -3 -9 2 -12 12 -6 14 -5 15 5 6 7 -7 10 -15 7 -18z m17 -14 c-3
-5 4 -13 16 -16 11 -4 18 -9 16 -12 -9 -8 -48 18 -42 28 4 5 8 9 11 9 3 0 3
-4 -1 -9z m-135 -27 c0 -2 -9 0 -20 6 -11 6 -20 13 -20 16 0 2 9 0 20 -6 11
-6 20 -13 20 -16z m-97 1 c-3 -9 -8 -14 -10 -11 -3 3 -2 9 2 15 9 16 15 13 8
-4z m47 12 c0 -2 -12 -14 -27 -28 l-28 -24 24 28 c23 25 31 32 31 24z m860
-23 c0 -2 -9 0 -20 6 -11 6 -20 13 -20 16 0 2 9 0 20 -6 11 -6 20 -13 20 -16z
m-860 -14 c0 -5 -5 -10 -11 -10 -5 0 -7 5 -4 10 3 6 8 10 11 10 2 0 4 -4 4
-10z m187 -24 c4 -4 1 -6 -7 -4 -9 2 -14 -3 -12 -12 2 -8 0 -11 -4 -7 -14 13
-12 35 2 33 7 -1 17 -6 21 -10z m-737 -6 c0 -5 -2 -10 -4 -10 -3 0 -8 5 -11
10 -3 6 -1 10 4 10 6 0 11 -4 11 -10z m90 -56 c0 -2 -13 2 -30 11 -16 9 -30
18 -30 21 0 2 14 -2 30 -11 17 -9 30 -18 30 -21z m647 11 c-15 -16 -19 -13
-11 9 3 9 10 13 15 10 5 -3 3 -11 -4 -19z m53 -10 c19 -22 8 -25 -12 -3 -10
10 -14 18 -9 18 5 0 14 -7 21 -15z m90 -5 c-8 -5 -22 -9 -30 -9 -10 0 -8 3 5
9 27 12 43 12 25 0z m-749 -17 c13 -17 13 -17 -6 -3 -11 8 -22 16 -24 17 -2 2
0 3 6 3 6 0 17 -8 24 -17z m610 -16 c-10 -9 -11 -8 -5 6 3 10 9 15 12 12 3 -3
0 -11 -7 -18z m-336 -27 c-3 -5 7 -16 23 -24 23 -12 32 -12 43 -3 7 7 5 2 -5
-10 -10 -12 -15 -27 -10 -34 4 -8 3 -10 -4 -5 -6 4 -19 -6 -29 -21 -10 -15
-28 -39 -39 -53 -64 -74 -73 -84 -74 -78 0 5 15 25 33 45 18 21 50 60 71 88
l37 49 -37 19 c-28 14 -34 21 -23 28 18 11 22 11 14 -1z m-435 -20 c-6 -11
-16 -20 -22 -20 -6 0 -3 9 7 20 10 11 20 20 22 20 2 0 -1 -9 -7 -20z m790 10
c0 -5 -5 -10 -11 -10 -5 0 -7 5 -4 10 3 6 8 10 11 10 2 0 4 -4 4 -10z m33 -24
c4 -11 1 -13 -10 -9 -10 4 -14 2 -9 -5 3 -6 2 -13 -4 -17 -6 -4 -7 -11 -4 -17
4 -7 2 -8 -4 -4 -11 7 -6 31 11 54 12 15 14 15 20 -2z m-398 -16 c10 -11 16
-20 13 -20 -3 0 -13 9 -23 20 -10 11 -16 20 -13 20 3 0 13 -9 23 -20z m329 -1
c-3 -5 -10 -7 -15 -3 -5 3 -7 10 -3 15 3 5 10 7 15 3 5 -3 7 -10 3 -15z m-204
-31 c0 -5 -11 -1 -25 8 -14 9 -25 18 -25 20 0 2 11 -2 25 -8 14 -6 25 -15 25
-20z m-174 -9 c3 -6 -5 -3 -20 6 -14 10 -26 19 -26 22 0 7 39 -17 46 -28z
m673 -66 c30 -19 63 -39 75 -44 12 -6 30 -15 41 -22 11 -7 75 -43 143 -80 67
-38 122 -70 122 -73 0 -5 -234 116 -293 152 -26 16 -92 54 -147 84 -55 30
-100 58 -100 63 0 9 88 -35 159 -80z m-331 -19 c51 -30 95 -54 98 -54 2 0 26
-15 52 -33 73 -51 173 -108 181 -103 4 3 8 -1 8 -9 0 -11 -5 -12 -21 -3 -45
24 -212 121 -222 129 -6 5 -18 8 -25 6 -8 -2 -11 -2 -6 1 7 3 -134 96 -195
128 -16 8 -28 19 -28 24 0 5 15 0 33 -11 17 -12 74 -45 125 -75z m149 41 c-17
-19 -32 -35 -34 -35 -2 0 8 16 23 35 14 19 30 35 34 35 5 0 -6 -16 -23 -35z
m-305 -8 c-7 -8 -8 -18 -4 -22 4 -5 1 -5 -5 -1 -10 5 -10 11 -1 26 7 11 14 17
17 15 2 -3 -1 -11 -7 -18z m86 -119 c75 -43 64 -46 -15 -4 -36 19 -71 33 -76
29 -6 -3 -7 -1 -3 5 4 7 -9 19 -33 31 -22 12 -42 25 -46 31 -3 5 23 -7 57 -26
35 -20 87 -50 116 -66z m506 81 c49 -28 46 -34 -4 -9 -22 11 -40 23 -40 25 0
8 8 6 44 -16z m-324 -3 c0 -2 -8 -10 -17 -17 -16 -13 -17 -12 -4 4 13 16 21
21 21 13z m-375 -24 c-3 -3 -11 0 -18 7 -9 10 -8 11 6 5 10 -3 15 -9 12 -12z
m870 -74 c6 -5 -20 5 -57 24 -37 18 -67 37 -67 41 -1 9 106 -47 124 -65z
m-765 16 c0 -2 -9 0 -20 6 -11 6 -20 13 -20 16 0 2 9 0 20 -6 11 -6 20 -13 20
-16z m840 -60 c0 -2 -13 2 -30 11 -16 9 -30 18 -30 21 0 2 14 -2 30 -11 17 -9
30 -18 30 -21z m-230 -37 c0 -2 -10 -12 -22 -23 l-23 -19 19 23 c18 21 26 27
26 19z m-45 -127 c3 -6 -1 -7 -9 -4 -18 7 -21 14 -7 14 6 0 13 -4 16 -10z
m123 -69 c75 -45 96 -64 40 -35 -42 21 -148 86 -148 90 0 7 37 -12 108 -55z
m107 -69 c-3 -3 -11 0 -18 7 -9 10 -8 11 6 5 10 -3 15 -9 12 -12z m85 -38 c0
-2 -13 2 -30 11 -16 9 -30 18 -30 21 0 2 14 -2 30 -11 17 -9 30 -18 30 -21z"/>
<path d="M1957 2730 c-9 -11 -13 -20 -8 -20 11 0 35 29 29 35 -2 2 -12 -4 -21
-15z"/>
<path d="M2093 2837 c0 -7 8 -13 18 -13 13 0 15 3 7 13 -6 7 -14 13 -18 13 -3
0 -7 -6 -7 -13z"/>
<path d="M2860 2888 c19 -12 38 -21 43 -20 4 1 6 -4 5 -10 -2 -7 4 -11 12 -10
8 2 12 1 8 -3 -4 -4 2 -23 12 -43 22 -44 23 -54 46 -342 10 -124 20 -214 22
-201 2 13 -3 114 -12 225 -31 383 -29 371 -77 401 -21 14 -51 25 -66 25 l-28
0 35 -22z"/>
<path d="M1018 2774 c-2 -41 1 -59 13 -70 8 -8 19 -14 22 -14 4 0 29 -13 55
-30 27 -16 52 -30 56 -30 4 0 6 28 4 62 l-3 63 -65 37 c-36 21 -68 38 -72 38
-3 0 -8 -25 -10 -56z"/>
<path d="M1010 2672 c0 -22 8 -31 38 -47 20 -10 49 -27 64 -37 35 -24 48 -23
48 6 0 20 -14 32 -71 65 -39 23 -73 41 -75 41 -2 0 -4 -12 -4 -28z"/>
<path d="M1006 2598 c-3 -18 -8 -73 -11 -123 -3 -49 -8 -121 -11 -160 l-5 -70
43 -25 c24 -14 53 -29 66 -33 12 -5 22 -13 22 -18 0 -5 4 -9 9 -9 6 0 10 8 9
18 0 9 5 71 11 137 24 264 25 234 -6 247 -15 7 -47 25 -70 40 -23 15 -44 28
-47 28 -3 0 -7 -15 -10 -32z m104 -220 c0 -4 -4 -8 -9 -8 -6 0 -12 4 -15 8 -3
5 1 9 9 9 8 0 15 -4 15 -9z m4 -84 c3 -8 2 -12 -4 -9 -6 3 -10 10 -10 16 0 14
7 11 14 -7z"/>
<path d="M1278 2430 c-1 -28 2 -52 7 -54 6 -2 5 -9 -2 -17 -7 -7 -13 -20 -13
-28 0 -10 13 -3 37 20 l37 34 -33 -39 c-42 -50 -47 -64 -54 -171 l-7 -90 157
-90 c87 -49 169 -94 184 -100 15 -5 31 -13 35 -17 4 -5 14 -8 23 -8 9 0 34
-12 56 -25 l40 -25 -33 5 c-18 2 -49 13 -68 24 -42 25 -71 27 -96 4 -22 -20
-24 -10 -2 12 14 14 15 18 3 29 -15 14 -286 176 -294 176 -3 0 -5 -13 -5 -29
0 -26 7 -33 64 -62 36 -18 75 -41 88 -52 13 -10 -16 2 -64 28 -84 44 -88 45
-88 24 0 -60 84 -147 161 -166 27 -6 237 -8 334 -1 11 0 43 0 70 -1 28 -1 120
-2 205 -2 85 0 221 -1 302 -2 81 -1 157 1 170 5 13 3 16 7 8 7 -29 3 -140 58
-133 66 5 4 2 5 -5 1 -7 -4 -45 10 -90 35 -92 50 -145 79 -232 126 -36 20 -80
45 -99 56 -19 12 -31 15 -27 9 4 -7 2 -12 -4 -12 -6 0 -13 6 -16 13 -2 7 -14
13 -25 14 -25 2 -51 22 -43 34 3 5 -2 6 -10 3 -9 -3 -16 -1 -16 6 0 6 -3 9 -8
6 -4 -2 -26 9 -49 24 -47 32 -323 199 -367 222 -28 15 -30 14 -57 -16 -16 -17
-29 -26 -29 -20 0 6 9 19 20 29 26 23 25 29 -4 48 l-24 16 -4 -49z m257 -160
c3 -6 -1 -7 -9 -4 -18 7 -21 14 -7 14 6 0 13 -4 16 -10z m140 -80 c3 -6 -1 -7
-9 -4 -18 7 -21 14 -7 14 6 0 13 -4 16 -10z m85 -27 c10 8 10 6 0 -7 -14 -18
-13 -19 8 -13 13 3 21 3 18 0 -3 -4 0 -13 7 -21 10 -13 9 -14 -1 -8 -9 5 -23
0 -38 -15 l-25 -23 23 -19 23 -18 -24 12 c-21 10 -26 9 -37 -6 -8 -10 -11 -22
-7 -28 3 -6 1 -7 -5 -3 -12 7 -54 -44 -58 -69 -1 -8 3 -18 8 -22 7 -3 8 -1 4
5 -10 17 -6 16 67 -23 36 -19 70 -35 76 -35 14 0 83 -42 78 -47 -3 -2 -20 4
-38 14 -78 43 -150 60 -133 31 4 -7 2 -8 -5 -4 -6 4 -8 12 -5 18 5 8 1 9 -10
5 -10 -4 -15 -3 -11 3 6 10 -7 14 -32 11 -6 -1 -15 4 -19 10 -5 8 -2 10 7 5 8
-4 7 -1 -2 6 -15 12 -9 23 59 107 l75 94 -29 24 c-18 15 -21 21 -8 14 15 -7
25 -7 34 2z m-290 -118 c68 -41 128 -75 132 -75 5 0 8 -7 8 -16 0 -10 -5 -14
-16 -10 -8 3 -12 2 -9 -4 9 -15 1 -12 -45 14 -23 13 -37 25 -30 28 6 2 -30 30
-79 62 -86 55 -112 76 -94 76 4 0 64 -34 133 -75z m220 15 c0 -3 -10 -6 -22
-7 -13 0 -17 1 -10 4 8 3 5 11 -10 24 -23 19 -23 19 9 2 18 -10 33 -20 33 -23z
m155 30 c3 -6 -1 -7 -9 -4 -18 7 -21 14 -7 14 6 0 13 -4 16 -10z m50 -19 c-3
-5 4 -12 15 -16 11 -3 20 -11 20 -16 0 -5 -11 -2 -25 7 -21 14 -26 34 -9 34 3
0 3 -4 -1 -9z m-44 -67 c33 -19 59 -38 59 -41 0 -5 -76 37 -115 64 -41 28 0
11 56 -23z m349 -106 c69 -43 25 -33 -49 11 -36 21 -99 57 -138 80 -40 23 -73
44 -73 46 0 6 203 -101 260 -137z m-590 23 c0 -6 -4 -13 -10 -16 -5 -3 -10 1
-10 9 0 9 5 16 10 16 6 0 10 -4 10 -9z m720 -56 c-10 -13 -9 -19 6 -37 l19
-22 -24 17 c-19 12 -28 14 -38 5 -10 -8 -12 -7 -8 5 4 10 -1 18 -15 22 -12 4
-19 9 -17 12 3 2 15 0 26 -7 17 -9 25 -8 37 5 20 19 30 20 14 0z m-545 -25 c3
-5 2 -10 -4 -10 -5 0 -13 5 -16 10 -3 6 -2 10 4 10 5 0 13 -4 16 -10z m-388
-6 c-3 -3 -12 -4 -19 -1 -8 3 -5 6 6 6 11 1 17 -2 13 -5z"/>
<path d="M1684 1906 c11 -9 24 -16 30 -16 12 0 7 5 -24 19 -24 11 -24 11 -6
-3z"/>
<path d="M1530 1973 c0 -1 8 -7 18 -12 13 -7 19 -6 19 2 0 7 -9 13 -19 13 -10
0 -18 -1 -18 -3z"/>
<path d="M1200 2300 c0 -35 2 -61 4 -59 8 7 10 108 3 115 -4 4 -7 -21 -7 -56z"/>
<path d="M976 2221 c-7 -11 6 -21 69 -52 63 -30 59 -28 53 -35 -3 -3 -31 9
-62 27 -53 29 -76 33 -62 10 4 -5 19 -16 34 -24 15 -7 44 -24 66 -36 36 -21
68 -21 36 0 -13 8 -13 10 -1 18 12 8 12 11 0 23 -25 25 -128 78 -133 69z"/>
<path d="M3013 2175 c0 -33 2 -45 4 -27 2 18 2 45 0 60 -2 15 -4 0 -4 -33z"/>
<path d="M1193 2165 c0 -33 2 -45 4 -27 2 18 2 45 0 60 -2 15 -4 0 -4 -33z"/>
<path d="M975 2125 c-3 -8 -7 -21 -9 -29 -3 -10 19 -29 65 -55 39 -23 75 -41
80 -41 5 0 9 15 9 33 0 26 -6 36 -30 50 -17 10 -35 15 -42 11 -6 -4 -8 -3 -4
4 3 6 -8 17 -25 26 -39 19 -39 19 -44 1z m98 -65 c-9 -11 -19 -17 -21 -15 -6
6 18 35 29 35 5 0 1 -9 -8 -20z"/>
<path d="M2460 2106 c0 -2 7 -7 16 -10 8 -3 12 -2 9 4 -6 10 -25 14 -25 6z"/>
<path d="M1177 1989 c-11 -153 1 -179 89 -195 l39 -6 -41 43 c-59 63 -68 83
-74 184 l-5 90 -8 -116z m56 -142 c13 -20 13 -24 1 -24 -8 0 -14 7 -14 14 0 8
-4 11 -10 8 -6 -3 -7 1 -4 9 8 21 9 20 27 -7z"/>
<path d="M3019 2015 c-7 -114 -24 -148 -104 -211 -19 -14 -18 -15 18 -9 100
16 112 40 100 197 l-9 113 -5 -90z m-3 -154 c0 -16 -3 -18 -15 -8 -12 10 -14
9 -8 -5 3 -10 2 -20 -3 -23 -6 -4 -10 3 -10 14 0 11 8 25 18 30 9 6 17 11 17
11 1 0 1 -9 1 -19z"/>
<path d="M3094 2008 c3 -50 6 -108 6 -129 0 -36 3 -40 49 -64 27 -13 52 -29
56 -35 10 -17 32 -11 38 10 3 11 1 18 -4 14 -5 -3 -9 -1 -9 5 0 5 6 11 13 14
8 2 12 27 12 73 1 117 1 116 -80 163 -40 22 -76 41 -80 41 -5 0 -5 -41 -1 -92z"/>
<path d="M962 2053 c1 -5 -1 -48 -5 -98 -8 -98 2 -162 23 -157 11 3 11 0 1
-12 -10 -12 -9 -18 6 -33 39 -41 29 -58 -72 -114 -51 -29 -91 -57 -88 -63 3
-5 1 -6 -5 -2 -10 6 -112 -38 -112 -49 0 -2 18 -14 40 -26 22 -13 40 -26 40
-30 0 -5 -22 5 -48 22 l-48 29 -74 -39 c-78 -41 -88 -54 -89 -111 -1 -74 45
-191 64 -160 3 5 1 10 -6 10 -7 0 -3 10 9 23 12 13 19 27 15 32 -5 4 2 6 14 3
15 -4 27 2 42 23 12 15 21 32 21 36 0 8 28 29 43 31 23 4 67 34 61 43 -4 6
-16 1 -31 -13 -24 -22 -25 -22 -15 -2 6 12 9 24 7 28 -3 3 -2 4 2 1 3 -3 15 3
25 12 18 16 18 16 12 0 -7 -20 22 -35 38 -19 8 8 7 16 -3 28 -11 14 -11 16 0
10 8 -5 17 -3 23 5 8 11 9 11 5 -3 -6 -18 13 -19 34 -1 8 6 19 12 24 12 27 3
45 14 39 23 -5 7 -1 9 9 5 12 -4 14 -2 10 11 -6 14 -4 15 8 5 11 -9 18 -8 31
1 10 7 14 17 10 21 -4 5 -2 5 5 2 6 -4 34 3 61 16 l51 24 -55 31 c-39 22 -56
27 -61 19 -5 -7 -19 -21 -33 -32 -16 -13 -13 -7 9 17 37 41 40 41 118 -9 l51
-32 167 0 167 1 -38 23 c-21 13 -41 22 -44 21 -3 -1 -16 9 -30 23 l-25 24 35
-20 c99 -58 134 -73 168 -73 34 0 35 1 17 14 -50 35 -117 66 -127 60 -6 -4 -9
-3 -6 2 3 5 -11 20 -33 33 -21 14 -37 26 -35 29 2 2 21 -7 43 -20 21 -14 77
-46 125 -72 98 -53 87 -55 156 29 17 22 32 35 32 29 0 -7 -7 -17 -15 -24 -9
-7 -14 -19 -11 -26 3 -8 1 -13 -5 -11 -6 1 -18 -9 -27 -22 l-17 -24 135 7
c173 9 590 13 590 5 0 -3 21 -6 46 -8 32 -1 52 3 65 15 11 9 19 12 19 6 0 -6
-6 -13 -12 -15 -7 -3 111 -5 262 -5 216 -1 271 2 257 11 -11 7 -53 33 -95 60
-110 68 -76 58 43 -13 55 -33 107 -60 115 -60 18 0 -3 15 -75 55 -101 55 -140
79 -156 92 -12 10 -38 13 -88 11 l-71 -3 47 -25 c54 -27 101 -60 86 -60 -5 0
-13 4 -19 9 -5 5 -41 26 -81 45 l-71 36 -219 0 c-219 0 -220 0 -242 -24 l-23
-24 44 -27 c24 -15 33 -23 19 -20 -17 5 -22 4 -16 -5 5 -9 4 -11 -4 -6 -6 4
-9 11 -6 16 3 5 -8 17 -24 26 -29 17 -29 18 -11 31 38 27 21 33 -85 32 -58 -1
-105 -3 -105 -5 0 -2 18 -13 41 -24 23 -12 39 -24 36 -26 -3 -3 -27 8 -53 25
l-49 29 -349 1 c-192 1 -353 4 -357 7 -5 3 -9 0 -9 -7 0 -8 -4 -8 -15 1 -8 7
-22 10 -30 6 -9 -3 -14 -2 -11 3 3 4 -8 18 -24 30 -46 33 -62 73 -59 148 l2
66 -69 38 c-70 39 -86 45 -82 32z m93 -50 c26 -14 44 -27 42 -29 -2 -2 -32 12
-68 32 -35 19 -54 32 -42 29 13 -3 43 -18 68 -32z m-35 -7 c0 -3 -4 -8 -10
-11 -5 -3 -10 -1 -10 4 0 6 5 11 10 11 6 0 10 -2 10 -4z m54 -182 c21 -8 21
-24 0 -24 -8 0 -13 4 -10 9 4 5 0 12 -6 14 -7 3 -10 6 -6 6 3 1 13 -2 22 -5z
m161 -149 c72 -37 134 -71 140 -76 20 -19 -13 -7 -90 33 -44 23 -92 42 -106
43 -32 2 -202 107 -187 116 5 4 33 -6 62 -21 28 -15 110 -57 181 -95z m545 20
c0 -10 -16 -4 -40 16 l-25 20 33 -16 c17 -8 32 -18 32 -20z m115 25 c3 -6 -1
-7 -9 -4 -18 7 -21 14 -7 14 6 0 13 -4 16 -10z m100 -34 c40 -25 76 -42 79
-39 3 4 6 1 6 -5 0 -17 -10 -15 -48 8 -18 11 -38 17 -44 14 -7 -4 -8 -2 -4 4
4 7 -9 19 -34 32 -37 19 -49 30 -34 30 4 0 39 -20 79 -44z m95 34 c8 -5 11
-10 5 -10 -5 0 -17 5 -25 10 -8 5 -10 10 -5 10 6 0 17 -5 25 -10z m-485 -75
c17 -12 37 -24 45 -28 11 -4 9 -6 -6 -6 -11 -1 -29 8 -39 19 -10 11 -22 20
-26 20 -10 0 -99 60 -99 66 0 6 86 -43 125 -71z m520 55 c3 -5 1 -10 -4 -10
-6 0 -11 5 -11 10 0 6 2 10 4 10 3 0 8 -4 11 -10z m-770 -28 c-3 -3 -11 0 -18
7 -9 10 -8 11 6 5 10 -3 15 -9 12 -12z m505 -28 c0 -7 -58 25 -65 36 -3 5 10
1 29 -11 20 -12 36 -23 36 -25z m295 37 c3 -5 2 -12 -3 -15 -5 -3 -9 1 -9 9 0
17 3 19 12 6z m405 -17 c0 -2 -9 0 -20 6 -11 6 -20 13 -20 16 0 2 9 0 20 -6
11 -6 20 -13 20 -16z m-380 -29 c-7 -8 -17 -15 -23 -15 -5 0 -3 8 6 18 10 10
15 21 14 24 -2 3 1 2 6 -3 7 -5 6 -13 -3 -24z m-954 9 c18 -14 18 -14 -6 -3
-31 14 -36 19 -24 19 6 0 19 -7 30 -16z m749 -24 c3 -6 -1 -7 -9 -4 -18 7 -21
14 -7 14 6 0 13 -4 16 -10z m155 -16 c0 -2 -9 0 -20 6 -11 6 -20 13 -20 16 0
2 9 0 20 -6 11 -6 20 -13 20 -16z m-1220 -9 c-6 -8 -9 -18 -6 -23 3 -6 -2 -9
-12 -8 -9 0 -16 -5 -14 -11 1 -7 -3 -13 -9 -13 -6 0 -8 -7 -5 -17 4 -10 4 -14
0 -10 -4 4 -21 -5 -38 -20 -29 -26 -29 -26 -8 -2 12 14 22 31 22 37 0 7 5 12
10 12 6 0 10 7 10 15 0 8 5 15 11 15 5 0 7 5 3 12 -4 6 -3 8 3 5 6 -4 16 0 23
8 7 8 15 15 17 15 3 0 0 -7 -7 -15z m90 -8 c0 -2 -8 -11 -18 -20 -15 -14 -19
-15 -19 -2 0 8 4 12 8 9 4 -2 10 0 14 6 6 10 15 14 15 7z m-63 -79 c-25 -33
-27 -34 -20 -8 3 11 10 20 15 20 5 0 7 4 4 8 -3 5 1 9 9 9 9 0 7 -8 -8 -29z
m-38 -19 c-5 -10 -14 -21 -20 -25 -8 -5 -8 -1 0 13 6 11 8 22 6 25 -3 3 2 5 9
5 11 0 12 -5 5 -18z"/>
<path d="M1030 1758 c0 -6 137 -88 147 -88 4 0 -1 6 -12 14 -33 22 -135 78
-135 74z"/>
<path d="M3080 1810 c-6 -11 -29 -34 -51 -50 -38 -27 -39 -29 -17 -35 13 -4
32 -15 43 -25 31 -28 85 -52 101 -46 8 3 13 2 10 -3 -8 -12 42 -43 56 -35 6 4
8 3 5 -2 -3 -6 31 -31 76 -56 45 -25 119 -66 165 -92 46 -26 90 -45 98 -42 8
3 13 2 9 -3 -3 -5 35 -33 85 -61 50 -28 87 -56 84 -61 -4 -6 -11 -6 -19 1 -7
6 -17 9 -23 8 -5 -2 -19 8 -31 22 -13 14 -20 20 -17 14 3 -7 -2 -18 -11 -25
-15 -12 -16 -12 -10 3 4 12 2 15 -8 12 -35 -14 -23 -35 40 -71 40 -23 60 -40
53 -44 -7 -4 -17 0 -23 8 -7 9 -17 13 -23 9 -7 -4 -12 -1 -12 7 0 16 -64 48
-76 38 -5 -5 -31 -16 -58 -24 -41 -14 -108 -17 -473 -16 -422 0 -465 -3 -447
-33 4 -6 -4 -4 -17 2 -34 18 -36 21 -9 18 12 -2 25 2 27 8 2 6 -9 11 -26 11
-17 0 -28 -5 -24 -10 3 -5 -4 -6 -18 -2 -13 4 30 -27 95 -69 66 -42 129 -76
140 -76 15 0 4 11 -34 35 -30 19 -51 35 -46 35 5 0 32 -14 59 -32 40 -26 64
-33 115 -36 46 -3 63 -1 58 7 -4 6 -2 11 3 11 6 0 11 -5 11 -10 0 -7 93 -10
267 -9 239 0 359 9 388 27 6 4 15 7 20 7 6 1 9 6 8 12 -1 6 6 9 16 6 12 -3 31
8 55 32 49 49 62 82 73 187 6 54 15 47 -197 165 -159 90 -210 115 -210 106 1
-5 24 -20 53 -34 129 -65 185 -102 179 -118 -6 -14 -7 -14 -10 1 -3 16 -54 42
-79 41 -7 0 -11 4 -10 9 1 5 -25 24 -58 42 -33 17 -81 44 -106 59 -25 15 -49
24 -52 20 -4 -3 -7 -1 -7 6 0 7 -4 10 -8 7 -5 -3 -18 3 -30 14 -13 12 -28 17
-38 13 -11 -4 -15 -2 -11 4 4 6 -20 27 -53 48 -33 21 -58 40 -56 42 3 3 35
-11 71 -30 51 -27 67 -32 72 -22 9 26 -27 51 -40 28 -2 -5 -2 -2 -1 5 3 10
-64 62 -80 62 -3 0 -10 -9 -16 -20z m75 -30 c3 -5 1 -10 -4 -10 -6 0 -11 5
-11 10 0 6 2 10 4 10 3 0 8 -4 11 -10z m64 -103 c9 -11 6 -14 -14 -13 -13 1
-28 6 -32 10 -4 5 -3 6 4 2 6 -3 14 -2 18 4 8 13 10 13 24 -3z m461 -229 c0
-10 -25 2 -55 26 -17 14 -14 14 18 -1 20 -9 37 -21 37 -25z m-133 7 c0 -8 -4
-12 -9 -9 -5 3 -6 10 -3 15 9 13 12 11 12 -6z m195 -44 c12 -14 11 -15 -4 -2
-10 7 -24 11 -31 8 -8 -3 -14 1 -14 8 0 16 33 8 49 -14z m-1062 -247 c0 -2 -9
0 -20 6 -11 6 -20 13 -20 16 0 2 9 0 20 -6 11 -6 20 -13 20 -16z"/>
<path d="M2915 1730 l-50 -5 85 -45 c47 -25 101 -50 120 -58 19 -7 37 -16 40
-20 6 -8 17 -14 200 -109 69 -35 116 -57 105 -48 -11 10 -33 23 -50 31 -16 7
-25 14 -20 14 6 0 -8 10 -30 21 -22 11 -49 26 -60 32 -68 41 -113 73 -137 95
-26 24 -73 55 -128 84 -16 9 -43 12 -75 8z"/>
<path d="M3327 1649 c7 -7 15 -10 18 -7 3 3 -2 9 -12 12 -14 6 -15 5 -6 -5z"/>
<path d="M578 1546 c-15 -8 -28 -13 -30 -13 -2 1 0 -2 3 -6 3 -5 22 1 40 12
38 23 28 28 -13 7z"/>
<path d="M1433 1513 l-301 -3 -79 -43 c-43 -24 -122 -66 -175 -93 -65 -32 -94
-52 -87 -59 11 -11 2547 -20 2657 -9 34 3 62 9 62 12 0 4 -52 32 -115 63 -82
41 -112 51 -105 38 7 -12 17 -16 28 -12 13 4 14 3 6 -6 -8 -9 -89 -9 -340 -1
-181 6 -344 15 -361 20 -31 8 -33 7 -39 -26 -3 -19 -17 -43 -31 -54 -25 -19
-42 -20 -444 -20 -414 0 -418 0 -438 21 -25 27 -35 72 -23 96 9 17 -1 18 -192
20 -263 4 -380 12 -346 25 36 14 529 16 523 3 -6 -16 38 -11 75 8 17 10 32 20
32 22 0 3 -1 4 -2 3 -2 -2 -139 -4 -305 -5z"/>
<path d="M1828 1502 c-33 -20 -35 -28 -8 -37 11 -3 20 -11 20 -16 0 -5 -11 -2
-24 6 -22 15 -27 15 -53 1 -24 -13 -19 -22 10 -17 5 1 6 -3 2 -9 -5 -9 15 -15
38 -11 5 1 6 -3 3 -8 -10 -15 48 -32 100 -30 38 2 54 8 73 28 48 53 73 90 66
101 -11 17 -195 11 -227 -8z m102 -108 c0 -2 -13 2 -30 11 -16 9 -30 18 -30
21 0 2 14 -2 30 -11 17 -9 30 -18 30 -21z"/>
<path d="M2070 1515 c0 -2 32 -22 71 -45 39 -23 68 -44 66 -46 -3 -3 -31 11
-63 31 -33 19 -63 35 -69 34 -5 0 -29 -23 -52 -52 l-42 -52 97 -3 97 -3 42 48
c46 52 58 48 18 -7 -14 -19 -25 -35 -25 -37 0 -2 12 -3 27 -3 26 0 26 1 7 15
-24 18 -5 20 21 1 14 -9 58 -14 136 -15 97 -2 117 1 122 13 8 19 -29 56 -55
56 -11 0 -17 4 -14 9 3 5 -1 11 -8 14 -9 4 -30 -11 -52 -36 -35 -39 -64 -56
-64 -37 0 4 18 27 41 51 22 24 37 38 33 30 -5 -10 -3 -12 6 -6 10 6 7 12 -11
26 -28 21 -99 26 -99 7 0 -10 -2 -10 -9 0 -6 10 -36 13 -114 11 -59 -1 -107
-3 -107 -4z"/>
<path d="M2493 1514 c1 0 27 -17 57 -39 32 -22 47 -29 36 -16 -20 22 -20 22 0
27 37 10 552 9 546 0 -3 -5 3 -6 13 -3 9 4 24 2 32 -4 7 -7 16 -9 19 -6 3 3
-7 12 -24 21 -24 13 -86 16 -355 18 -179 2 -325 3 -324 2z"/>
<path d="M487 1493 c3 -8 0 -19 -8 -24 -9 -5 -15 -34 -18 -90 l-3 -81 -94 -44
c-52 -24 -94 -47 -94 -49 0 -25 34 -77 58 -89 33 -17 194 -46 256 -46 22 0 67
-9 100 -20 34 -11 75 -25 91 -30 18 -6 331 -10 780 -10 655 0 1420 -15 1820
-35 201 -10 428 -8 472 4 48 13 88 45 98 78 5 19 -1 26 -47 49 -81 41 -108 62
-101 81 4 9 -12 -4 -35 -29 -23 -24 -63 -56 -90 -71 -109 -59 -69 -58 -1567
-55 l-1370 3 -59 28 c-113 53 -165 109 -192 208 -20 76 -18 147 6 191 16 30
17 37 5 42 -9 3 -12 0 -8 -11z"/>
<path d="M2372 1440 c-31 -41 -28 -48 4 -10 15 17 24 33 22 35 -2 3 -14 -9
-26 -25z"/>
<path d="M3204 1458 c-4 -7 -3 -8 4 -4 6 4 24 -1 39 -10 l28 -16 -25 21 c-29
24 -36 25 -46 9z"/>
<path d="M1708 1418 c-11 -29 4 -38 60 -38 l57 0 -40 25 c-44 27 -71 31 -77
13z"/>
<path d="M3527 1389 c7 -7 15 -10 18 -7 3 3 -2 9 -12 12 -14 6 -15 5 -6 -5z"/>
<path d="M677 1292 c-10 -10 -17 -23 -17 -29 0 -6 -11 -18 -25 -27 -25 -16
-25 -16 -13 3 6 11 16 17 22 14 5 -4 6 -1 2 6 -6 9 -12 8 -26 -4 -15 -14 -18
-37 -11 -87 3 -22 33 -2 70 47 38 50 41 57 28 75 -13 19 -14 19 -30 2z m26
-16 c4 -11 1 -13 -10 -9 -12 5 -14 3 -8 -7 5 -9 4 -11 -4 -6 -9 6 -9 11 0 22
14 17 16 17 22 0z"/>
<path d="M748 1250 l23 -10 -27 -30 c-27 -29 -46 -42 -27 -17 18 22 22 44 8
44 -7 0 -11 -6 -9 -12 3 -7 -2 -18 -10 -25 -9 -7 -13 -16 -10 -21 3 -5 -3 -6
-12 -2 -13 5 -15 3 -9 -7 6 -10 4 -12 -8 -7 -20 7 -24 -18 -5 -29 7 -4 8 -3 4
4 -4 7 -2 12 3 12 6 0 11 -6 11 -14 0 -15 56 -32 142 -42 l56 -6 39 53 c42 57
83 98 83 84 0 -5 -7 -15 -15 -24 -23 -24 -85 -102 -85 -107 0 -2 42 -4 93 -4
l92 0 -30 20 c-16 11 -26 20 -22 20 5 0 21 -8 35 -19 35 -23 98 -26 106 -4 4
9 5 17 4 17 -88 51 -166 101 -163 104 2 3 43 -19 92 -48 79 -48 88 -51 98 -36
5 10 22 32 37 49 15 18 28 35 28 40 0 4 -35 7 -77 8 -43 1 -89 2 -103 2 -14 1
-29 -2 -33 -8 -6 -6 -10 -6 -14 3 -2 6 -9 9 -15 6 -9 -6 -124 -6 -205 0 -19 2
-33 -2 -33 -8 0 -6 -5 -3 -11 7 -5 9 -20 17 -32 16 l-22 0 23 -9z m15 -55 c-3
-9 -8 -14 -10 -11 -3 3 -2 9 2 15 9 16 15 13 8 -4z m-18 -55 c-3 -5 -12 -10
-18 -10 -7 0 -6 4 3 10 19 12 23 12 15 0z m42 -6 c-3 -3 -12 -4 -19 -1 -8 3
-5 6 6 6 11 1 17 -2 13 -5z"/>
<path d="M3811 1238 c-5 -13 -6 -27 -2 -33 3 -5 8 1 9 15 2 14 9 28 16 32 8 6
7 8 -2 8 -7 0 -16 -10 -21 -22z"/>
<path d="M1410 1242 c-14 -2 -36 -13 -50 -25 l-25 -22 19 23 19 22 -37 0 c-40
0 -43 -2 -93 -67 -36 -45 -40 -58 -20 -67 6 -3 2 -3 -10 -1 -12 3 -24 2 -27
-3 -3 -6 28 -10 71 -10 66 -1 81 2 100 20 12 11 20 26 16 32 -3 6 -3 8 1 4 7
-6 34 21 74 73 15 20 2 27 -38 21z"/>
<path d="M1448 1201 c-16 -25 -41 -60 -55 -78 l-25 -33 285 0 285 0 36 35 c20
19 36 37 36 41 0 3 11 20 25 36 14 16 23 33 21 36 -2 4 -46 6 -97 5 -92 -1
-92 -1 -118 -34 -14 -19 -39 -47 -54 -64 -16 -16 -8 -3 17 30 25 33 46 62 46
65 0 3 -84 5 -186 5 l-186 0 -30 -44z m52 -41 c0 -5 -2 -10 -4 -10 -3 0 -8 5
-11 10 -3 6 -1 10 4 10 6 0 11 -4 11 -10z"/>
<path d="M2040 1176 c-34 -41 -67 -77 -73 -80 -7 -2 154 -5 357 -4 232 0 364
3 355 9 -8 5 -35 19 -61 30 -27 12 -48 27 -48 33 0 6 -16 -7 -35 -29 -19 -22
-34 -35 -35 -28 0 7 6 16 13 20 6 4 18 15 25 24 11 14 5 21 -48 52 -59 36 -61
36 -194 40 -95 3 -136 1 -139 -7 -3 -8 -8 -7 -18 2 -23 22 -36 13 -99 -62z
m75 44 c3 -5 2 -10 -4 -10 -5 0 -13 5 -16 10 -3 6 -2 10 4 10 5 0 13 -4 16
-10z m40 -28 c-3 -3 -11 0 -18 7 -9 10 -8 11 6 5 10 -3 15 -9 12 -12z m427
-74 c-7 -7 -12 -8 -12 -2 0 14 12 26 19 19 2 -3 -1 -11 -7 -17z"/>
<path d="M2450 1247 c0 -7 111 -69 116 -64 2 2 -20 17 -48 33 -64 35 -68 37
-68 31z"/>
</g>
</svg>
